# xmcd CD database file generated by MAGIX-FreeDB-MP3_Maker_deluxe v2.0beta1
# 
# Track frame offsets:
#      150
#      13352
#      30724
#      48676
#      64126
#      78591
#      97707
#      117404
#      127812
# 
# Disc length: 1956 seconds
# 
# Revision: 0 
# Processed by: cddbd v1.5.2PL0 Copyright (c) Steve Scherf et al.
# Submitted via: MAGIX-FreeDB-MP3_Maker_deluxe v2.0beta1
# 
DISCID=7307a209
DTITLE=Ruchelle - From a Dark Place
DYEAR=2006
DGENRE=Easy Listening
TTITLE0=Ruchelle - Just Never Know
TTITLE1=Ruchelle - Season of Love
TTITLE2=Ruchelle - From a Dark Place
TTITLE3=Ruchelle - This Town
TTITLE4=Ruchelle - My Soul Waits
TTITLE5=Ruchelle - Simple Man Sings
TTITLE6=Ruchelle - Perfectly Blue
TTITLE7=Ruchelle - Louis Street
TTITLE8=Ruchelle - Jaded Sky
EXTD=
EXTT0=
EXTT1=
EXTT2=
EXTT3=
EXTT4=
EXTT5=
EXTT6=
EXTT7=
EXTT8=
PLAYORDER=
